<svg width="164" height="31" viewBox="0 0 164 31" fill="none" xmlns="http://www.w3.org/2000/svg">
<rect width="101.112" height="29.8865" transform="matrix(1 0 -0.390731 0.920505 11.6787 2.25586)" fill="#CCFF33"/>
<path d="M19.0752 7.45097H25.6728L31.1685 19.5453L36.3022 7.45097H42.1668L34.389 25.7741H27.5941L22.1917 13.9913L17.1902 25.7741H11.2975L19.0752 7.45097ZM56.5321 22.2445H45.4797L42.2334 25.7741H35.7768L53.1407 7.45097H61.4018L63.1821 25.7741H56.7819L56.5321 22.2445ZM56.2673 18.3514L55.743 11.0845H55.6866L49.0213 18.3514H56.2673ZM93.9605 7.45097L76.2018 25.7741H69.5478L67.3163 7.45097H74.0267L75.1442 20.4277L87.2783 7.45097H93.9605ZM95.3444 7.45097H101.322L93.544 25.7741H87.5667L95.3444 7.45097Z" fill="#1C1C1E"/>
<path d="M116.15 7.45097H131.037L129.231 11.7073H120.321L119.054 14.692H127.907L126.211 18.6888H117.357L114.35 25.7741H108.373L116.15 7.45097ZM133.745 7.45097H139.722L131.944 25.7741H125.967L133.745 7.45097ZM146.075 11.7333H140.013L141.831 7.45097H159.904L158.086 11.7333H152.052L146.092 25.7741H140.115L146.075 11.7333Z" fill="#1C1C1E"/>
</svg>
