<svg width="21" height="21" viewBox="0 0 21 21" fill="none" xmlns="http://www.w3.org/2000/svg">
    <path fillRule="evenodd" clipRule="evenodd" d="M11.9157 3.26093C12.1425 3.16113 12.4069 3.20482 12.5896 3.3723L17.5896 7.95563C17.8441 8.18888 17.8613 8.58423 17.628 8.83868C17.3948 9.09313 16.9994 9.11032 16.745 8.87708L12.7923 5.25379L12.7923 17.1664C12.7923 17.5115 12.5125 17.7914 12.1673 17.7914C11.8221 17.7914 11.5423 17.5115 11.5423 17.1664L11.5423 3.83302C11.5423 3.58517 11.6888 3.36073 11.9157 3.26093ZM8.83399 3.20802C9.17917 3.20802 9.45899 3.48784 9.45899 3.83302L9.45899 17.1664C9.45899 17.4142 9.31253 17.6386 9.08565 17.7384C8.85878 17.8382 8.59437 17.7946 8.41166 17.6271L3.41166 13.0437C3.15721 12.8105 3.14002 12.4151 3.37327 12.1607C3.60651 11.9062 4.00187 11.8891 4.25632 12.1223L8.20899 15.7456L8.20899 3.83302C8.20899 3.48784 8.48881 3.20802 8.83399 3.20802Z" fill="#C5C5C5" />
</svg>