<svg width="24" height="25" viewBox="0 0 24 25" fill="none" xmlns="http://www.w3.org/2000/svg">
    <rect x="4.25" y="3.25" width="15.5" height="18.5" rx="3.25" stroke="#3300FF" strokeWidth="1.5" />
    <path fillRule="evenodd" clipRule="evenodd" d="M20.5 6.75C20.5 7.16421 20.297 7.5 20.0465 7.5L7.95349 7.5C7.70303 7.5 7.5 7.16421 7.5 6.75C7.5 6.33579 7.70303 6 7.95349 6L20.0465 6C20.297 6 20.5 6.33579 20.5 6.75Z" fill="#3300FF" />
    <path fillRule="evenodd" clipRule="evenodd" d="M20.5 14.75C20.5 15.1642 20.297 15.5 20.0465 15.5L7.95349 15.5C7.70303 15.5 7.5 15.1642 7.5 14.75C7.5 14.3358 7.70303 14 7.95349 14L20.0465 14C20.297 14 20.5 14.3358 20.5 14.75Z" fill="#3300FF" />
    <path fillRule="evenodd" clipRule="evenodd" d="M20.5 10.75C20.5 11.1642 20.1819 11.5 19.7895 11.5L12.2105 11.5C11.8181 11.5 11.5 11.1642 11.5 10.75C11.5 10.3358 11.8181 10 12.2105 10L19.7895 10C20.1819 10 20.5 10.3358 20.5 10.75Z" fill="#3300FF" />
    <path fillRule="evenodd" clipRule="evenodd" d="M20.5 18.75C20.5 19.1642 20.1819 19.5 19.7895 19.5H12.2105C11.8181 19.5 11.5 19.1642 11.5 18.75C11.5 18.3358 11.8181 18 12.2105 18H19.7895C20.1819 18 20.5 18.3358 20.5 18.75Z" fill="#3300FF" />
</svg>