<svg width="20" height="21" viewBox="0 0 20 21" fill="none" xmlns="http://www.w3.org/2000/svg">
    <path d="M15 4.25C15 4.25 13.75 7.18024 13.75 9.60714C13.75 10.3842 14.0163 11.0344 14.375 11.682C14.7878 12.4272 15.3232 13.169 15.7161 14.0965C16.0279 14.8325 16.25 15.6855 16.25 16.75" stroke="#C5C5C5" strokeWidth="1.5" strokeLinecap="round" strokeLinejoin="round" />
    <path d="M5 4.25C5 4.25 6.25 7.18024 6.25 9.60714C6.25 10.3842 5.98374 11.0344 5.62501 11.682C5.21215 12.4272 4.67682 13.169 4.28391 14.0965C3.97211 14.8325 3.75 15.6855 3.75 16.75" stroke="#C5C5C5" strokeWidth="1.5" strokeLinecap="round" strokeLinejoin="round" />
    <path d="M6.25 11.125H13.75" stroke="#C5C5C5" strokeWidth="1.5" strokeLinecap="round" />
    <path d="M6.25 9.875H13.75" stroke="#C5C5C5" strokeLinecap="round" />
    <path d="M10 16.75C10.3125 15.8125 11.875 13.9375 15.625 13.9375" stroke="#C5C5C5" strokeWidth="1.5" strokeLinecap="round" />
    <path d="M10 16.75C9.6875 15.8125 8.125 13.9375 4.375 13.9375" stroke="#C5C5C5" strokeWidth="1.5" strokeLinecap="round" />
</svg>