<svg width="24" height="24" viewBox="0 0 24 24" fill="none" xmlns="http://www.w3.org/2000/svg">
<path d="M4 19.5V8.4C4 6.15979 4 5.03968 4.43597 4.18404C4.81947 3.43139 5.43139 2.81947 6.18404 2.43597C7.03968 2 8.15979 2 10.4 2H13.6C15.8402 2 16.9603 2 17.816 2.43597C18.5686 2.81947 19.1805 3.43139 19.564 4.18404C20 5.03968 20 6.15979 20 8.4V17.5M9 7H15M20 17H6.5C5.11929 17 4 18.1193 4 19.5V19.5C4 20.8807 5.11929 22 6.5 22H15C15.9293 22 16.394 22 16.7804 21.9231C18.3671 21.6075 19.6075 20.3671 19.9231 18.7804C20 18.394 20 17.9293 20 17V17Z" stroke="currentColor" stroke-width="1.5" stroke-linecap="round" stroke-linejoin="round"/>
</svg>
