<svg width="25" height="24" viewBox="0 0 25 24" fill="none" xmlns="http://www.w3.org/2000/svg">
<path d="M15.6001 22V14M15.6001 14V2L17.1762 2.39403C18.0429 2.61069 18.4762 2.71903 18.7989 2.96062C19.0835 3.17378 19.3062 3.459 19.444 3.78687C19.6001 4.15848 19.6001 4.60515 19.6001 5.49848V10.0223C19.6001 10.7402 19.6001 11.0992 19.4908 11.4161C19.3941 11.6963 19.2364 11.9516 19.0289 12.1634C18.7944 12.4029 18.4733 12.5634 17.8312 12.8845L15.6001 14ZM7.6001 2V11M7.6001 11V22M7.6001 11L6.02506 9.94997C5.50408 9.60265 5.24358 9.42899 5.05501 9.19955C4.88806 8.99643 4.7628 8.76238 4.6864 8.5108C4.6001 8.22663 4.6001 7.91355 4.6001 7.28741V2M7.6001 11L9.17514 9.94997C9.69612 9.60265 9.95661 9.42899 10.1452 9.19955C10.3121 8.99643 10.4374 8.76238 10.5138 8.5108C10.6001 8.22663 10.6001 7.91355 10.6001 7.28741V2" stroke="currentColor" stroke-width="1.5" stroke-linecap="round" stroke-linejoin="round"/>
</svg>
