<svg width="24" height="24" viewBox="0 0 24 24" fill="none" xmlns="http://www.w3.org/2000/svg">
    <path fillRule="evenodd" clipRule="evenodd" d="M4.92883 1.53064L4.97762 1.53743C5.26567 1.5775 5.52048 1.61295 5.73071 1.65796C5.95471 1.70593 6.18257 1.77509 6.40036 1.90924C6.88268 2.20634 7.221 2.68679 7.35858 3.233C7.42779 3.50781 7.40884 3.86953 7.38807 4.13989C7.38172 4.22264 7.37396 4.30872 7.36524 4.39669L12.0218 5.04466C12.0332 4.9663 12.045 4.88976 12.0572 4.81614C12.1014 4.55035 12.1695 4.19301 12.3039 3.94272C12.5709 3.44531 13.0206 3.06623 13.5671 2.90828C13.8138 2.83701 14.053 2.83281 14.2807 2.84772C14.4948 2.86174 14.7496 2.89722 15.0376 2.9373L15.0864 2.94409C15.3744 2.98416 15.6292 3.01961 15.8395 3.06462C16.0635 3.11259 16.2913 3.18175 16.5091 3.3159C16.9914 3.613 17.3298 4.09345 17.4673 4.63966C17.5284 4.88201 17.5328 5.11907 17.5193 5.35433C17.5066 5.5782 17.474 5.8465 17.4362 6.15826L17.0863 9.0431C17.0485 9.3548 17.016 9.62317 16.9749 9.84324C16.9318 10.0741 16.8708 10.304 16.7523 10.5246C16.4853 11.022 16.0356 11.4011 15.4891 11.559C15.2424 11.6303 15.0032 11.6345 14.7755 11.6196C14.5614 11.6056 14.3066 11.5701 14.0186 11.53L13.9699 11.5232C13.6818 11.4831 13.427 11.4477 13.2167 11.4027C12.9927 11.3547 12.7649 11.2856 12.5471 11.1514C12.0648 10.8543 11.7264 10.3739 11.5889 9.82765C11.5197 9.55284 11.5386 9.19112 11.5594 8.92076C11.5657 8.83801 11.5735 8.75192 11.5822 8.66396L6.92567 8.01599C6.91428 8.09434 6.90249 8.17088 6.89025 8.24451C6.84605 8.51029 6.77795 8.86764 6.64358 9.11793C6.37653 9.61534 5.92687 9.99442 5.38031 10.1524C5.13367 10.2236 4.89448 10.2278 4.66679 10.2129C4.45265 10.1989 4.19779 10.1634 3.90985 10.1233L3.86108 10.1166C3.57304 10.0765 3.31822 10.041 3.108 9.99602C2.88399 9.94806 2.65613 9.8789 2.43834 9.74474C1.95603 9.44765 1.6177 8.9672 1.48012 8.42099C1.41908 8.17863 1.41469 7.94158 1.42811 7.70632C1.44089 7.48244 1.47344 7.21413 1.51127 6.90234L1.86115 4.0175C1.89895 3.70581 1.93148 3.43745 1.97255 3.2174C2.01564 2.98656 2.07668 2.75668 2.19512 2.53606C2.46217 2.03865 2.91184 1.65957 3.45839 1.50163C3.70503 1.43035 3.94422 1.42615 4.17191 1.44106C4.38604 1.45509 4.6409 1.49056 4.92883 1.53064ZM4.07389 2.93786C3.92854 2.92834 3.88492 2.93974 3.87482 2.94266C3.73673 2.98257 3.60316 3.08455 3.5167 3.24559C3.50258 3.27189 3.47728 3.33088 3.44709 3.4926C3.41588 3.65985 3.3888 3.88014 3.34752 4.22053L3.00306 7.06062C2.96178 7.40095 2.9354 7.62142 2.92568 7.7918C2.9163 7.95611 2.92647 8.02198 2.9347 8.05463C2.98183 8.24177 3.09262 8.38603 3.22503 8.46759C3.23776 8.47543 3.27959 8.49876 3.42208 8.52927C3.57244 8.56147 3.77248 8.58977 4.09215 8.63426C4.4119 8.67875 4.61194 8.70612 4.76481 8.71613C4.91017 8.72565 4.95378 8.71424 4.96388 8.71132C5.09987 8.67203 5.23148 8.57253 5.31802 8.4157C5.31854 8.41353 5.32966 8.38582 5.34663 8.31879C5.36719 8.2376 5.38859 8.1306 5.41057 7.99845C5.4547 7.73302 5.49356 7.41388 5.53424 7.07844C5.55847 6.87871 5.66192 6.69709 5.82137 6.57438C5.98081 6.45167 6.18288 6.39817 6.38215 6.4259L12.5137 7.27912C12.9189 7.3355 13.2041 7.70616 13.1549 8.11227C13.1142 8.44767 13.0756 8.76689 13.055 9.03566C13.0447 9.16945 13.0398 9.27895 13.0403 9.36342C13.0408 9.43773 13.0455 9.46774 13.0451 9.4678C13.0932 9.65178 13.2029 9.79364 13.3338 9.87425C13.3465 9.88209 13.3883 9.90542 13.5308 9.93593C13.6812 9.96813 13.8812 9.99643 14.2009 10.0409C14.5206 10.0854 14.7207 10.1128 14.8736 10.1228C15.0189 10.1323 15.0625 10.1209 15.0726 10.118C15.2107 10.0781 15.3443 9.9761 15.4307 9.81505C15.4449 9.78876 15.4702 9.72976 15.5004 9.56804C15.5316 9.40079 15.5586 9.1805 15.5999 8.84011L15.9444 6.00003C15.9857 5.6597 16.012 5.43923 16.0218 5.26885C16.0311 5.10453 16.021 5.03867 16.0127 5.00602C15.9656 4.81888 15.8548 4.67462 15.7224 4.59305C15.7097 4.58521 15.6679 4.56188 15.5254 4.53137C15.375 4.49917 15.175 4.47087 14.8553 4.42639C14.5355 4.38189 14.3355 4.35453 14.1826 4.34452C14.0373 4.335 13.9937 4.3464 13.9836 4.34932C13.8476 4.38862 13.716 4.48812 13.6294 4.64494C13.6289 4.6471 13.6178 4.67481 13.6008 4.74186C13.5803 4.82305 13.5589 4.93004 13.5369 5.06219C13.4927 5.32762 13.4539 5.64677 13.4132 5.9822C13.389 6.18193 13.2855 6.36356 13.1261 6.48627C12.9666 6.60897 12.7646 6.66247 12.5653 6.63474L6.43376 5.78152C6.02859 5.72514 5.74333 5.35448 5.79258 4.94838C5.83326 4.61297 5.87183 4.29375 5.89248 4.02499C5.90276 3.8912 5.90761 3.78169 5.9071 3.69722C5.90665 3.62324 5.90201 3.59317 5.90233 3.59285C5.85429 3.40887 5.74454 3.26701 5.61367 3.18639C5.60094 3.17856 5.55911 3.15522 5.41663 3.12471C5.26627 3.09252 5.06623 3.06421 4.74655 3.01973C4.4268 2.97524 4.22676 2.94787 4.07389 2.93786ZM19.1972 12.2465C19.0467 12.2781 18.8515 12.3337 18.5401 12.423C18.2289 12.5124 18.0337 12.5689 17.8882 12.6222C17.7504 12.6728 17.7099 12.7025 17.6959 12.714C17.5714 12.8163 17.4784 12.9773 17.4533 13.1689C17.4537 13.1689 17.4527 13.1993 17.4615 13.2733C17.4714 13.357 17.4897 13.4647 17.5163 13.5958C17.57 13.8591 17.6476 14.1699 17.7293 14.4966C17.8274 14.8887 17.5971 15.288 17.2086 15.3996L11.2362 17.1137C11.0408 17.1698 10.8309 17.1441 10.6547 17.0425C10.4785 16.9409 10.3511 16.7721 10.3018 16.5748C10.22 16.248 10.1421 15.9374 10.0657 15.6807C10.0276 15.5529 9.99331 15.4502 9.96307 15.3731C9.93926 15.3123 9.9253 15.2866 9.92384 15.2834C9.82204 15.1454 9.68441 15.0681 9.54828 15.0489C9.53891 15.0476 9.49445 15.0423 9.35088 15.0725C9.20031 15.1041 9.00511 15.1597 8.69374 15.249C8.38251 15.3384 8.18734 15.3949 8.04184 15.4482C7.90402 15.4988 7.86351 15.5285 7.84956 15.54C7.72371 15.6434 7.63003 15.8069 7.60614 16.0012C7.60192 16.0355 7.60008 16.1024 7.62956 16.2634C7.66019 16.4307 7.7135 16.6453 7.79644 16.9768L8.48846 19.7432C8.57143 20.0749 8.62539 20.2891 8.67687 20.4501C8.72668 20.6059 8.75854 20.6592 8.77429 20.6812C8.87662 20.824 9.0168 20.9037 9.15544 20.9233C9.1648 20.9246 9.20926 20.9299 9.35284 20.8997C9.50341 20.8681 9.69861 20.8125 10.01 20.7232C10.3212 20.6338 10.5164 20.5773 10.6619 20.524C10.7997 20.4734 10.8402 20.4437 10.8542 20.4322C10.9786 20.3299 11.0716 20.1689 11.0968 19.9773C11.0964 19.9773 11.0974 19.9469 11.0886 19.8729C11.0787 19.7892 11.0604 19.6815 11.0337 19.5504C10.9801 19.2871 10.9025 18.9763 10.8208 18.6496C10.7227 18.2575 10.953 17.8582 11.3414 17.7467L17.3138 16.0325C17.5093 15.9764 17.7192 16.0021 17.8954 16.1037C18.0716 16.2053 18.199 16.3741 18.2483 16.5714C18.3301 16.8982 18.4079 17.2089 18.4844 17.4655C18.5224 17.5933 18.5568 17.696 18.587 17.7731C18.6108 17.8339 18.6248 17.8596 18.6262 17.8628C18.728 18.0009 18.8657 18.0781 19.0018 18.0973C19.0111 18.0986 19.0556 18.1039 19.1992 18.0737C19.3498 18.0421 19.545 17.9865 19.8563 17.8972C20.1676 17.8078 20.3627 17.7514 20.5082 17.698C20.646 17.6474 20.6866 17.6177 20.7005 17.6062C20.8264 17.5028 20.92 17.3394 20.9439 17.145C20.9481 17.1107 20.95 17.0438 20.9205 16.8828C20.8899 16.7155 20.8366 16.5009 20.7536 16.1694L20.0616 13.403C19.9786 13.0713 19.9247 12.8571 19.8732 12.6961C19.8234 12.5403 19.7915 12.487 19.7758 12.4651C19.6734 12.3222 19.5333 12.2425 19.3946 12.223C19.3853 12.2216 19.3408 12.2163 19.1972 12.2465ZM18.8888 10.7785C19.112 10.7317 19.3498 10.7018 19.6041 10.7376C20.1685 10.8172 20.6658 11.1318 20.9952 11.5915C21.1413 11.7955 21.2307 12.0164 21.302 12.2393C21.3699 12.4519 21.4354 12.7135 21.5112 13.0169L22.2143 15.8272C22.2902 16.1308 22.3556 16.3923 22.396 16.6126C22.4384 16.8444 22.4632 17.0799 22.4327 17.328C22.3641 17.8867 22.0897 18.4061 21.6529 18.765C21.4559 18.927 21.2405 19.0271 21.0248 19.1062C20.8223 19.1805 20.5744 19.2516 20.2936 19.3322L20.2464 19.3458C19.9659 19.4263 19.7179 19.4975 19.5076 19.5417C19.2844 19.5886 19.0466 19.6184 18.7923 19.5826C18.2279 19.503 17.7306 19.1885 17.4012 18.7287C17.2353 18.4971 17.1232 18.1502 17.0468 17.8937C17.0269 17.827 17.0071 17.7577 16.9875 17.6868L12.447 18.9899C12.4673 19.0793 12.4864 19.1669 12.5036 19.2512C12.5576 19.5167 12.621 19.8725 12.5864 20.154C12.5177 20.7127 12.2433 21.2321 11.8066 21.591C11.6096 21.753 11.3942 21.8531 11.1784 21.9322C10.976 22.0065 10.7281 22.0776 10.4473 22.1582L10.4001 22.1718C10.1195 22.2523 9.87152 22.3235 9.66124 22.3677C9.43806 22.4145 9.20027 22.4444 8.94598 22.4086C8.38156 22.329 7.88426 22.0145 7.55489 21.5547C7.40876 21.3507 7.31938 21.1298 7.24811 20.9069C7.18014 20.6943 7.11471 20.4327 7.03882 20.1293L6.33581 17.319C6.25986 17.0154 6.19443 16.7539 6.15409 16.5336C6.11165 16.3018 6.08685 16.0663 6.11734 15.8182C6.18601 15.2595 6.46039 14.7401 6.89712 14.3812C7.09414 14.2192 7.30954 14.1191 7.5253 14.04C7.72778 13.9657 7.9757 13.8946 8.25651 13.814L8.30357 13.8005C8.58416 13.7199 8.83219 13.6487 9.04248 13.6045C9.26567 13.5577 9.50345 13.5278 9.75773 13.5636C10.3221 13.6432 10.8195 13.9577 11.1488 14.4175C11.3148 14.6492 11.4269 14.996 11.5033 15.2525C11.5231 15.3192 11.5429 15.3885 11.5626 15.4595L16.1031 14.1563C16.0828 14.0669 16.0637 13.9793 16.0465 13.895C15.9924 13.6295 15.9291 13.2737 15.9637 12.9922C16.0324 12.4335 16.3067 11.9141 16.7435 11.5552C16.9405 11.3932 17.1559 11.2931 17.3716 11.214C17.5741 11.1397 17.822 11.0686 18.1028 10.988L18.15 10.9744C18.4306 10.8939 18.6786 10.8227 18.8888 10.7785Z" fill="#3300FF" />
</svg>