<svg width="25" height="24" viewBox="0 0 25 24" fill="none" xmlns="http://www.w3.org/2000/svg">
<path d="M3.7002 20.5L5.2002 19M19.2002 5L20.7002 3.5M15.2002 9L9.2002 15M11.2002 21V21C11.7454 20.4548 12.0181 20.1821 12.1638 19.888C12.4411 19.3285 12.4411 18.6715 12.1638 18.112C12.0181 17.8179 11.7454 17.5453 11.2002 17L7.2002 13C6.65495 12.4548 6.38232 12.1821 6.08823 12.0364C5.52867 11.7591 4.87172 11.7591 4.31216 12.0364C4.01807 12.1821 3.74545 12.4548 3.2002 13V13C2.65495 13.5452 2.38232 13.8179 2.23658 14.112C1.9593 14.6715 1.9593 15.3285 2.23658 15.888C2.38232 16.1821 2.65494 16.4547 3.20019 17L7.20019 21C7.74545 21.5452 8.01807 21.8179 8.31216 21.9636C8.87172 22.2409 9.52867 22.2409 10.0882 21.9636C10.3823 21.8179 10.6549 21.5452 11.2002 21ZM21.2002 11V11C21.7454 10.4548 22.0181 10.1821 22.1638 9.88803C22.4411 9.32848 22.4411 8.67152 22.1638 8.11197C22.0181 7.81787 21.7454 7.54525 21.2002 7L17.2002 3C16.6549 2.45475 16.3823 2.18213 16.0882 2.03639C15.5287 1.75911 14.8717 1.75911 14.3122 2.03639C14.0181 2.18213 13.7454 2.45475 13.2002 3V3C12.6549 3.54525 12.3823 3.81787 12.2366 4.11197C11.9593 4.67152 11.9593 5.32848 12.2366 5.88803C12.3823 6.18213 12.6549 6.45475 13.2002 7L17.2002 11C17.7454 11.5452 18.0181 11.8179 18.3122 11.9636C18.8717 12.2409 19.5287 12.2409 20.0882 11.9636C20.3823 11.8179 20.6549 11.5452 21.2002 11Z" stroke="currentColor" stroke-width="1.5" stroke-linecap="round" stroke-linejoin="round"/>
</svg>
