<svg width="24" height="24" viewBox="0 0 32 33" fill="none" xmlns="http://www.w3.org/2000/svg">
    <path d="M2.6665 16.5002C2.6665 11.4718 2.6665 8.95769 4.2286 7.39559C5.7907 5.8335 8.30486 5.8335 13.3332 5.8335H18.6665C23.6948 5.8335 26.209 5.8335 27.7711 7.39559C29.3332 8.95769 29.3332 11.4718 29.3332 16.5002C29.3332 21.5285 29.3332 24.0426 27.7711 25.6047C26.209 27.1668 23.6948 27.1668 18.6665 27.1668H13.3332C8.30486 27.1668 5.7907 27.1668 4.2286 25.6047C2.6665 24.0426 2.6665 21.5285 2.6665 16.5002Z" stroke="#616161" strokeWidth="1.5" />
    <path d="M8 11.1665L10.8785 13.5653C13.3274 15.606 14.5518 16.6263 16 16.6263C17.4482 16.6263 18.6726 15.606 21.1215 13.5653L24 11.1665" stroke="#616161" strokeWidth="1.5" strokeLinecap="round" />
</svg>