<svg width="23" height="23" viewBox="0 0 23 23" fill="none" xmlns="http://www.w3.org/2000/svg">
    <g clipPath="url(#clip0_3439_6487)">
        <path d="M8.16315 1.22361C5.96501 1.98616 4.06933 3.43352 2.75457 5.35308C1.43981 7.27264 0.775259 9.56323 0.858534 11.8884C0.941809 14.2136 1.76852 16.4507 3.21723 18.2713C4.66595 20.0919 6.66031 21.3999 8.90737 22.0033C10.7291 22.4734 12.6378 22.494 14.4692 22.0635C16.1284 21.6908 17.6623 20.8936 18.9208 19.75C20.2306 18.5234 21.1814 16.963 21.6708 15.2366C22.2028 13.3591 22.2975 11.3847 21.9475 9.46501H11.7175V13.7086H17.6421C17.5236 14.3854 17.2699 15.0314 16.896 15.6079C16.5222 16.1844 16.0358 16.6795 15.4661 17.0636C14.7427 17.5422 13.9271 17.8642 13.0719 18.0089C12.2141 18.1684 11.3343 18.1684 10.4766 18.0089C9.60722 17.8292 8.78482 17.4704 8.06174 16.9553C6.90012 16.1331 6.0279 14.9649 5.56955 13.6175C5.10346 12.2449 5.10346 10.7568 5.56955 9.38423C5.89582 8.4221 6.43517 7.54609 7.14737 6.82157C7.96238 5.97723 8.99422 5.37369 10.1297 5.07717C11.2651 4.78065 12.4603 4.80261 13.5841 5.14064C14.462 5.41012 15.2648 5.88097 15.9285 6.51564C16.5965 5.85105 17.2634 5.18475 17.9291 4.51673C18.2728 4.15751 18.6475 3.81548 18.9861 3.44767C17.973 2.50489 16.7839 1.7713 15.4867 1.28892C13.1247 0.431245 10.5401 0.408195 8.16315 1.22361Z" fill="white" />
        <path d="M8.16414 1.22359C10.5409 0.407622 13.1255 0.430064 15.4877 1.28718C16.7851 1.77284 17.9737 2.50996 18.9854 3.45624C18.6416 3.82406 18.279 4.16781 17.9284 4.52531C17.2615 5.19103 16.5952 5.85447 15.9295 6.51562C15.2658 5.88095 14.463 5.4101 13.5851 5.14062C12.4617 4.80141 11.2665 4.77818 10.1308 5.07349C8.99502 5.36879 7.96255 5.97122 7.14664 6.81468C6.43445 7.5392 5.89509 8.41521 5.56883 9.37734L2.00586 6.61874C3.28119 4.08971 5.48933 2.15519 8.16414 1.22359Z" fill="#E33629" />
        <path d="M1.06078 9.35159C1.25228 8.40248 1.57022 7.48335 2.00609 6.61877L5.56906 9.38424C5.10296 10.7568 5.10296 12.2449 5.56906 13.6175C4.38197 14.5342 3.19432 15.4554 2.00609 16.3813C0.914942 14.2093 0.582161 11.7346 1.06078 9.35159Z" fill="#F8BD00" />
        <path d="M11.7176 9.46326H21.9476C22.2975 11.383 22.2028 13.3574 21.6708 15.2348C21.1814 16.9613 20.2307 18.5217 18.9208 19.7483C17.771 18.8511 16.616 17.9608 15.4662 17.0636C16.0362 16.679 16.5228 16.1834 16.8967 15.6063C17.2706 15.0292 17.5241 14.3826 17.6421 13.7051H11.7176C11.7158 12.2923 11.7176 10.8778 11.7176 9.46326Z" fill="#587DBD" />
        <path d="M2.00391 16.3812C3.19214 15.4646 4.37979 14.5433 5.56688 13.6175C6.02614 14.9653 6.8996 16.1336 8.0625 16.9553C8.78783 17.4679 9.61201 17.8238 10.4825 18.0003C11.3403 18.1598 12.2201 18.1598 13.0778 18.0003C13.9331 17.8555 14.7486 17.5335 15.472 17.055C16.6219 17.9522 17.7769 18.8425 18.9267 19.7397C17.6684 20.8839 16.1345 21.6817 14.4752 22.0548C12.6437 22.4854 10.735 22.4648 8.91328 21.9947C7.47246 21.61 6.12663 20.9318 4.96016 20.0026C3.72551 19.0224 2.71711 17.7871 2.00391 16.3812Z" fill="#319F43" />
    </g>
    <defs>
        <clipPath id="clip0_3439_6487">
            <rect width="22" height="22" fill="white" transform="translate(0.5 0.5)" />
        </clipPath>
    </defs>
</svg>