<svg width="32" height="32" viewBox="0 0 32 32" fill="none" xmlns="http://www.w3.org/2000/svg">
<rect width="32" height="32" rx="8" fill="#ECEFF1"/>
<path d="M13.75 16L15.25 17.5L18.625 14.125M13.4007 8.90522L12.1005 9.48308C11.0688 9.94165 10.5529 10.1709 10.1746 10.5334C9.84019 10.8537 9.58451 11.2472 9.42756 11.6828C9.25 12.1757 9.25 12.7403 9.25 13.8694L9.25 16.3248C9.25 17.5771 9.25 18.2032 9.4226 18.7716C9.57541 19.2747 9.82592 19.7428 10.1598 20.1491C10.537 20.608 11.058 20.9553 12.0999 21.6499L13.3374 22.4749C14.2997 23.1165 14.7808 23.4372 15.3009 23.5618C15.7605 23.672 16.2395 23.672 16.6991 23.5618C17.2192 23.4372 17.7003 23.1165 18.6626 22.4749L19.9001 21.6499C20.942 20.9553 21.463 20.608 21.8402 20.1491C22.1741 19.7428 22.4246 19.2747 22.5774 18.7716C22.75 18.2032 22.75 17.5771 22.75 16.3248L22.75 13.8694C22.75 12.7403 22.75 12.1757 22.5724 11.6828C22.4155 11.2472 22.1598 10.8537 21.8254 10.5334C21.4471 10.1709 20.9312 9.94165 19.8995 9.48308L18.5993 8.90522C17.6421 8.47982 17.1635 8.26711 16.666 8.18311C16.2251 8.10865 15.7749 8.10865 15.334 8.18311C14.8365 8.26711 14.3579 8.47982 13.4007 8.90522Z" stroke="#757575" stroke-width="1.5" stroke-linecap="round" stroke-linejoin="round"/>
</svg>