<svg width="17" height="66" viewBox="0 0 17 66" fill="none" xmlns="http://www.w3.org/2000/svg">
    <path fillRule="evenodd" clipRule="evenodd" d="M0 0V36.752V36.7522V36.7528V36.7553V36.7652V36.8053V36.9681V37V37.6381V40.469V53C0 56.127 1.07117 58.5095 2.69465 60.2982C4.30349 62.0707 6.42371 63.2276 8.49145 63.987C10.5628 64.7477 12.6234 65.1248 14.1589 65.3128C14.9285 65.407 15.571 65.4542 16.0232 65.478C16.2494 65.4898 16.4283 65.4958 16.552 65.4989C16.6138 65.5004 16.6619 65.5011 16.6952 65.5015L16.734 65.5019L16.7449 65.5019L16.7482 65.502H16.7493C16.7497 65.502 16.75 65.502 16.75 64.752C16.75 64.002 16.7502 64.002 16.7504 64.002H16.7493L16.7428 64.0019L16.713 64.0016C16.6858 64.0013 16.644 64.0007 16.5887 63.9993C16.478 63.9966 16.3131 63.9911 16.1018 63.98C15.679 63.9578 15.0715 63.9133 14.3411 63.8239C12.8766 63.6446 10.9372 63.2872 9.00855 62.5789C7.07629 61.8693 5.19651 60.8227 3.80535 59.29C2.42883 57.7734 1.5 55.749 1.5 53L1.5 40.469L1.5 37.6381L1.5 37L1.5 36.9681V36.8053V36.7652V36.7553V36.7528V36.7522V36.752V0H0Z" fill="#E0E0E0" />
</svg>