<svg width="24" height="24" viewBox="0 0 24 24" fill="none" xmlns="http://www.w3.org/2000/svg">
    <path d="M15.7803 9.78033C16.0732 9.48744 16.0732 9.01256 15.7803 8.71967C15.4874 8.42678 15.0126 8.42678 14.7197 8.71967L10.25 13.1893L8.78033 11.7197C8.48744 11.4268 8.01256 11.4268 7.71967 11.7197C7.42678 12.0126 7.42678 12.4874 7.71967 12.7803L9.71967 14.7803C10.0126 15.0732 10.4874 15.0732 10.7803 14.7803L15.7803 9.78033Z" fill="#4CAF50" />
    <path fillRule="evenodd" clipRule="evenodd" d="M11.75 1C5.81294 1 1 5.81294 1 11.75C1 17.6871 5.81294 22.5 11.75 22.5C17.6871 22.5 22.5 17.6871 22.5 11.75C22.5 5.81294 17.6871 1 11.75 1ZM2.5 11.75C2.5 6.64137 6.64137 2.5 11.75 2.5C16.8586 2.5 21 6.64137 21 11.75C21 16.8586 16.8586 21 11.75 21C6.64137 21 2.5 16.8586 2.5 11.75Z" fill="#4CAF50" />
</svg>