<svg width="24" height="24" viewBox="0 0 24 24" fill="none" xmlns="http://www.w3.org/2000/svg">
    <path fillRule="evenodd" clipRule="evenodd" d="M22.2954 6.56083C22.6761 6.724 22.8524 7.16491 22.6893 7.54563L21.9999 7.25019C22.6893 7.54563 22.6894 7.54546 22.6893 7.54563L22.6886 7.54731L22.6875 7.5498L22.6843 7.55716L22.6736 7.58123C22.6646 7.60137 22.6518 7.62958 22.6352 7.66527C22.6019 7.73662 22.5533 7.83794 22.4888 7.96435C22.3599 8.217 22.1675 8.57087 21.9084 8.98666C21.4828 9.6697 20.8724 10.5278 20.0619 11.3804L21.0303 12.3487C21.3231 12.6416 21.3231 13.1165 21.0303 13.4094C20.7374 13.7023 20.2625 13.7023 19.9696 13.4094L18.969 12.4088C18.3093 12.9615 17.5528 13.4802 16.695 13.9064L17.6286 15.3412C17.8545 15.6883 17.7562 16.1529 17.409 16.3788C17.0618 16.6047 16.5972 16.5064 16.3713 16.1592L15.2821 14.4853C14.5028 14.7398 13.659 14.9128 12.7499 14.9748V16.7502C12.7499 17.1644 12.4141 17.5002 11.9999 17.5002C11.5857 17.5002 11.2499 17.1644 11.2499 16.7502V14.9748C10.3689 14.9147 9.54909 14.7504 8.78982 14.5086L7.71575 16.1593C7.48984 16.5065 7.02526 16.6048 6.67807 16.3789C6.33089 16.153 6.23257 15.6884 6.45847 15.3412L7.37089 13.939C6.5065 13.5168 5.74381 13.0004 5.07842 12.4484L4.11744 13.4094C3.82455 13.7023 3.34968 13.7023 3.05678 13.4094C2.76389 13.1165 2.76389 12.6417 3.05678 12.3488L3.98055 11.425C3.15599 10.5653 2.53525 9.69675 2.10277 9.00486C1.83984 8.58423 1.6446 8.22584 1.51388 7.96988C1.44848 7.84182 1.3991 7.73914 1.36537 7.66683C1.3485 7.63067 1.33553 7.60207 1.32641 7.58167L1.31562 7.55729L1.31238 7.54984L1.31129 7.54733L1.31088 7.54638C1.31081 7.5462 1.31056 7.54563 1.99992 7.25019L1.31088 7.54638C1.14772 7.16565 1.32376 6.724 1.70448 6.56083C2.08489 6.3978 2.52539 6.57374 2.68888 6.95381C2.68882 6.95368 2.68894 6.95394 2.68888 6.95381L2.68983 6.956L2.69591 6.96972C2.7018 6.98291 2.7114 7.0041 2.72472 7.03267C2.75139 7.08983 2.79296 7.17644 2.84976 7.28767C2.96345 7.51029 3.13762 7.83046 3.37472 8.20979C3.85033 8.97067 4.57157 9.95728 5.55561 10.8718C6.42151 11.6765 7.48259 12.4178 8.75165 12.906C9.70614 13.2732 10.7854 13.5002 11.9999 13.5002C13.2416 13.5002 14.342 13.263 15.3124 12.881C16.5738 12.3845 17.6277 11.6384 18.4866 10.8322C19.4562 9.92216 20.1668 8.94535 20.6354 8.1934C20.869 7.8185 21.0405 7.50246 21.1525 7.28286C21.2085 7.17315 21.2494 7.08776 21.2757 7.03144C21.2888 7.00328 21.2983 6.98242 21.3041 6.96943L21.31 6.95595L21.3106 6.95475C21.3105 6.95485 21.3106 6.95466 21.3106 6.95475M22.2954 6.56083C21.9147 6.39771 21.4738 6.57423 21.3106 6.95475L22.2954 6.56083ZM2.68888 6.95381C2.68882 6.95368 2.68894 6.95394 2.68888 6.95381V6.95381Z" fill="#616161" />
</svg>