<svg width="32" height="32" viewBox="0 0 32 32" fill="none" xmlns="http://www.w3.org/2000/svg">
<rect width="32" height="32" rx="8" fill="#ECEFF1"/>
<path d="M19 23.125V22.2C19 21.0799 19 20.5198 19.218 20.092C19.4097 19.7157 19.7157 19.4097 20.092 19.218C20.5198 19 21.0799 19 22.2 19H23.125M18.3787 23.5H16C14.606 23.5 13.9091 23.5 13.3295 23.3847C10.9493 22.9113 9.08873 21.0507 8.61529 18.6705C8.5 18.0909 8.5 17.394 8.5 16V16C8.5 14.606 8.5 13.9091 8.61529 13.3295C9.08873 10.9493 10.9493 9.08873 13.3295 8.61529C13.9091 8.5 14.606 8.5 16 8.5V8.5C17.394 8.5 18.0909 8.5 18.6705 8.61529C21.0507 9.08873 22.9113 10.9493 23.3847 13.3295C23.5 13.9091 23.5 14.606 23.5 16V18.3787C23.5 19.7369 22.9604 21.0396 22 22V22C21.0396 22.9604 19.7369 23.5 18.3787 23.5Z" stroke="#757575" stroke-width="1.5" stroke-linecap="round" stroke-linejoin="round"/>
<path d="M19 23.125V22.2C19 21.0799 19 20.5198 19.218 20.092C19.4097 19.7157 19.7157 19.4097 20.092 19.218C20.5198 19 21.0799 19 22.2 19H23.125M12.25 12.25H18.25M12.25 15.25H16.75M12.25 18.25H13.75M18.3787 23.5H16C14.606 23.5 13.9091 23.5 13.3295 23.3847C10.9493 22.9113 9.08873 21.0507 8.61529 18.6705C8.5 18.0909 8.5 17.394 8.5 16V16C8.5 14.606 8.5 13.9091 8.61529 13.3295C9.08873 10.9493 10.9493 9.08873 13.3295 8.61529C13.9091 8.5 14.606 8.5 16 8.5V8.5C17.394 8.5 18.0909 8.5 18.6705 8.61529C21.0507 9.08873 22.9113 10.9493 23.3847 13.3295C23.5 13.9091 23.5 14.606 23.5 16V18.3787C23.5 19.7369 22.9604 21.0396 22 22V22C21.0396 22.9604 19.7369 23.5 18.3787 23.5Z" stroke="#757575" stroke-width="1.5" stroke-linecap="round" stroke-linejoin="round"/>
</svg>
