<svg width="24" height="25" viewBox="0 0 24 25" fill="none" xmlns="http://www.w3.org/2000/svg">
    <path fillRule="evenodd" clipRule="evenodd" d="M14.2325 5.61627C13.7187 5.61627 13.3023 6.03275 13.3023 6.5465C13.3023 7.06025 13.7187 7.47672 14.2325 7.47672C14.7462 7.47672 15.1627 7.06025 15.1627 6.5465C15.1627 6.03275 14.7462 5.61627 14.2325 5.61627ZM12.186 6.5465C12.186 5.41625 13.1022 4.5 14.2325 4.5C15.3627 4.5 16.279 5.41625 16.279 6.5465C16.279 7.67675 15.3627 8.593 14.2325 8.593C13.1022 8.593 12.186 7.67675 12.186 6.5465ZM8.47127 7.58211C9.01984 7.23926 9.70152 7.18677 10.2961 7.44159C11.5805 7.99202 11.9027 9.66556 10.9147 10.6536L10.6697 10.8986C10.5712 10.9971 10.5434 11.0254 10.5249 11.0467C10.201 11.4207 10.2265 11.9828 10.583 12.3259C10.6033 12.3455 10.6336 12.3712 10.7405 12.4603L10.7485 12.4669C10.8086 12.517 10.8501 12.5517 10.8894 12.587C11.4506 13.0917 11.7834 13.8023 11.8119 14.5565C11.8139 14.6094 11.8139 14.6634 11.8139 14.7416V15.4767C11.8139 15.7849 11.564 16.0348 11.2558 16.0348C10.9475 16.0348 10.6976 15.7849 10.6976 15.4767V14.752C10.6976 14.6596 10.6975 14.6278 10.6964 14.5987C10.6793 14.1461 10.4797 13.7198 10.1429 13.417C10.1213 13.3975 10.0969 13.377 10.0259 13.3179L10.0101 13.3047C9.9263 13.2349 9.86202 13.1813 9.80883 13.1301C9.02465 12.3753 8.96856 11.1387 9.68117 10.3159C9.72951 10.2601 9.78868 10.201 9.86581 10.1239C9.87059 10.1191 9.87544 10.1142 9.88036 10.1093L10.1254 9.8643C10.555 9.43466 10.4149 8.70695 9.85639 8.46761C9.59785 8.3568 9.30143 8.37963 9.06289 8.52871L6.7144 9.99652C6.453 10.1599 6.10866 10.0804 5.94529 9.81903C5.78192 9.55764 5.86138 9.2133 6.12278 9.04992L8.47127 7.58211ZM19.9891 8.66958C20.0495 8.97185 19.8535 9.26589 19.5512 9.32634C18.6655 9.50349 17.9858 10.2169 17.8518 11.1102L17.1663 15.6804C18.6468 15.4285 19.9999 16.5693 19.9999 18.073C19.9999 19.4133 18.9133 20.4999 17.573 20.4999H5.36694C4.612 20.4999 4 19.8879 4 19.133C4 18.4689 4.47722 17.9009 5.13131 17.7865L16.0071 15.8832L16.7479 10.9446C16.9517 9.58612 17.9853 8.50115 19.3323 8.23174C19.6346 8.17129 19.9286 8.36732 19.9891 8.66958ZM11.8425 10.8351C11.94 10.5427 12.2561 10.3846 12.5485 10.4821C13.1586 10.6854 13.8181 10.6854 14.4281 10.4821C14.7205 10.3846 15.0366 10.5427 15.1341 10.8351C15.2316 11.1275 15.0735 11.4436 14.7811 11.5411C13.9419 11.8208 13.0347 11.8208 12.1955 11.5411C11.9031 11.4436 11.7451 11.1275 11.8425 10.8351ZM8.6737 13.5936C8.89167 13.8116 8.89167 14.165 8.6737 14.383C7.8543 15.2024 6.74294 15.6627 5.58412 15.6627H5.30232C4.99407 15.6627 4.74418 15.4128 4.74418 15.1046C4.74418 14.7963 4.99407 14.5464 5.30232 14.5464H5.58412C6.44689 14.5464 7.27431 14.2037 7.88438 13.5936C8.10234 13.3757 8.45574 13.3757 8.6737 13.5936ZM18.8836 18.073C18.8836 17.2588 18.1491 16.6416 17.347 16.782L5.32373 18.886C5.20378 18.907 5.11627 19.0112 5.11627 19.133C5.11627 19.2714 5.2285 19.3836 5.36694 19.3836H17.573C18.2968 19.3836 18.8836 18.7968 18.8836 18.073Z" fill="#3300FF" />
</svg>