<svg width="24" height="24" viewBox="0 0 24 24" fill="none" xmlns="http://www.w3.org/2000/svg">
<path d="M22.5002 8.01004L21.0002 3.51004C20.948 3.35481 20.8465 3.22092 20.711 3.12883C20.5756 3.03674 20.4138 2.99151 20.2502 3.00004H3.75022C3.58667 2.99151 3.42483 3.03674 3.2894 3.12883C3.15397 3.22092 3.05241 3.35481 3.00022 3.51004L1.50022 8.01004C1.48951 8.08968 1.48951 8.1704 1.50022 8.25004V12.75C1.50022 12.949 1.57924 13.1397 1.71989 13.2804C1.86055 13.421 2.05131 13.5 2.25022 13.5H3.00022V20.5C3.00022 20.7762 3.22408 21 3.50022 21H4.00022C4.27637 21 4.50022 20.7762 4.50022 20.5V13.5H9.00022V20.5C9.00022 20.7762 9.22408 21 9.50022 21H20.5002C20.7764 21 21.0002 20.7762 21.0002 20.5V13.5H21.7502C21.9491 13.5 22.1399 13.421 22.2806 13.2804C22.4212 13.1397 22.5002 12.949 22.5002 12.75V8.25004C22.5109 8.1704 22.5109 8.08968 22.5002 8.01004ZM19.5002 19C19.5002 19.2762 19.2764 19.5 19.0002 19.5H11.0002C10.7241 19.5 10.5002 19.2762 10.5002 19V13.5H19.5002V19ZM21.0002 12H18.0002V9.50004C18.0002 9.2239 17.7764 9.00004 17.5002 9.00004H17.0002C16.7241 9.00004 16.5002 9.2239 16.5002 9.50004V12H12.7502V9.50004C12.7502 9.2239 12.5264 9.00004 12.2502 9.00004H11.7502C11.4741 9.00004 11.2502 9.2239 11.2502 9.50004V12H7.50022V9.50004C7.50022 9.2239 7.27637 9.00004 7.00022 9.00004H6.50022C6.22408 9.00004 6.00022 9.2239 6.00022 9.50004V12H3.00022V8.37004L4.29022 4.50004H19.7102L21.0002 8.37004V12Z" fill="#616161"/>
</svg>