<svg width="32" height="32" viewBox="0 0 32 32" fill="none" xmlns="http://www.w3.org/2000/svg">
<rect width="32" height="32" rx="8" fill="#ECEFF1"/>
<path d="M7.75 7.75005L8.125 7.75V7.75C9.22254 7.75003 10.1748 8.50759 10.4216 9.57703L10.5192 10M10.5192 10L11.3914 13.7794C11.6979 15.1078 11.8512 15.7721 12.2125 16.2675C12.5311 16.7045 12.962 17.0473 13.4594 17.2595C14.0234 17.5 14.7051 17.5 16.0685 17.5H18.4477C19.7108 17.5 20.3423 17.5 20.876 17.2879C21.3645 17.0937 21.7934 16.7746 22.1198 16.3625C22.4763 15.9122 22.6578 15.3074 23.0207 14.0976V14.0976C23.4336 12.7215 23.64 12.0335 23.4951 11.4873C23.3635 10.9911 23.046 10.5644 22.6085 10.2958C22.127 10 21.4087 10 19.9721 10H10.5192ZM17.5 17.5H11.5C10.6716 17.5 10 18.1716 10 19V19C10 19.8284 10.6716 20.5 11.5 20.5H22.75M15.25 22C15.25 22.8284 14.5784 23.5 13.75 23.5C12.9216 23.5 12.25 22.8284 12.25 22C12.25 21.1716 12.9216 20.5 13.75 20.5C14.5784 20.5 15.25 21.1716 15.25 22ZM21.25 22C21.25 22.8284 20.5784 23.5 19.75 23.5C18.9216 23.5 18.25 22.8284 18.25 22C18.25 21.1716 18.9216 20.5 19.75 20.5C20.5784 20.5 21.25 21.1716 21.25 22Z" stroke="#757575" stroke-width="1.5" stroke-linecap="round" stroke-linejoin="round"/>
</svg>