<svg width="32" height="32" viewBox="0 0 32 32" fill="none" xmlns="http://www.w3.org/2000/svg">
<rect width="32" height="32" rx="8" fill="#ECEFF1"/>
<path d="M12.25 8.875V8.875C12.25 9.22325 12.25 9.39738 12.2356 9.54405C12.0953 10.9684 10.9684 12.0953 9.54405 12.2356C9.39738 12.25 9.22325 12.25 8.875 12.25V12.25M19.75 8.875V8.875C19.75 9.22325 19.75 9.39738 19.7644 9.54405C19.9047 10.9684 21.0316 12.0953 22.4559 12.2356C22.6026 12.25 22.7767 12.25 23.125 12.25V12.25M19.75 20.125V20.125C19.75 19.7767 19.75 19.6026 19.7644 19.4559C19.9047 18.0316 21.0316 16.9047 22.4559 16.7644C22.6026 16.75 22.7767 16.75 23.125 16.75V16.75M12.25 20.125V20.125C12.25 19.7767 12.25 19.6026 12.2356 19.4559C12.0953 18.0316 10.9684 16.9047 9.54405 16.7644C9.39738 16.75 9.22325 16.75 8.875 16.75V16.75M10.75 23.5H21.25M17.5 14.5004C17.5 15.3288 16.8284 16.0004 16 16.0004C15.1716 16.0004 14.5 15.3288 14.5 14.5004C14.5 13.6719 15.1716 13.0004 16 13.0004C16.8284 13.0004 17.5 13.6719 17.5 14.5004ZM23.5 14.5V14.5C23.5 12.6362 23.5 11.7044 23.1955 10.9693C22.7895 9.98915 22.0108 9.21046 21.0307 8.80448C20.2956 8.5 19.3638 8.5 17.5 8.5H14.5C12.6362 8.5 11.7044 8.5 10.9693 8.80448C9.98915 9.21046 9.21046 9.98915 8.80448 10.9693C8.5 11.7044 8.5 12.6362 8.5 14.5V14.5C8.5 16.3638 8.5 17.2956 8.80448 18.0307C9.21046 19.0108 9.98915 19.7895 10.9693 20.1955C11.7044 20.5 12.6362 20.5 14.5 20.5H17.5C19.3638 20.5 20.2956 20.5 21.0307 20.1955C22.0108 19.7895 22.7895 19.0108 23.1955 18.0307C23.5 17.2956 23.5 16.3638 23.5 14.5Z" stroke="#757575" stroke-width="1.5" stroke-linecap="round" stroke-linejoin="round"/>
</svg>
